<svg width="62" height="62" viewBox="0 0 62 62" fill="none" xmlns="http://www.w3.org/2000/svg">
<rect x="0.5" y="0.5" width="61" height="61" rx="30.5" fill="#FEC010"/>
<rect x="0.5" y="0.5" width="61" height="61" rx="30.5" stroke="url(#paint0_linear_161_7814)"/>
<g clip-path="url(#clip0_161_7814)">
<path d="M27.2918 39.1251C34.8371 39.1251 38.9652 32.8724 38.9652 27.4517C38.9652 27.2759 38.9613 27.0962 38.9535 26.9204C39.7566 26.3397 40.4496 25.6203 41 24.7962C40.2521 25.129 39.458 25.3463 38.6449 25.4407C39.5011 24.9275 40.1421 24.1213 40.4492 23.1716C39.6438 23.6489 38.763 23.9856 37.8445 24.1673C37.2257 23.5098 36.4075 23.0744 35.5164 22.9285C34.6253 22.7826 33.711 22.9343 32.9148 23.3602C32.1186 23.7861 31.4848 24.4624 31.1115 25.2845C30.7382 26.1067 30.6462 27.029 30.8496 27.9087C29.2187 27.8269 27.6233 27.4032 26.1667 26.6652C24.71 25.9272 23.4247 24.8913 22.3941 23.6247C21.8703 24.5278 21.71 25.5965 21.9459 26.6135C22.1817 27.6306 22.7959 28.5197 23.6637 29.1001C23.0122 29.0794 22.375 28.904 21.8047 28.5884V28.6392C21.8041 29.5869 22.1317 30.5056 22.7319 31.2391C23.3321 31.9726 24.1678 32.4756 25.0969 32.6626C24.4934 32.8277 23.86 32.8518 23.2457 32.7329C23.5079 33.548 24.018 34.2609 24.7048 34.7721C25.3916 35.2833 26.2209 35.5673 27.077 35.5845C25.6237 36.726 23.8285 37.3452 21.9805 37.3423C21.6527 37.3418 21.3253 37.3217 21 37.2821C22.8774 38.4866 25.0613 39.1263 27.2918 39.1251Z" fill="black"/>
</g>
<defs>
<linearGradient id="paint0_linear_161_7814" x1="31" y1="0.999993" x2="31" y2="61" gradientUnits="userSpaceOnUse">
<stop offset="0.278527" stop-color="#2F2F37"/>
<stop offset="1" stop-color="#2F2F37" stop-opacity="0"/>
</linearGradient>
<clipPath id="clip0_161_7814">
<rect width="20" height="20" fill="white" transform="translate(21 21)"/>
</clipPath>
</defs>
</svg>
